<svg xmlns="http://www.w3.org/2000/svg" width="960" height="1056" viewBox="0 0 960 1056"><rect width="960" height="1056" fill="#101827"/>
<text x="40" y="55" font-family="monospace" font-size="24" fill="#80dbc4">SELECT A PROJECT / OPEN SOURCE</text>
<rect x="32" y="88" width="896" height="134" rx="8" fill="#152235" stroke="#2b3b52" stroke-width="2"/>
<rect x="32" y="88" width="7" height="134" fill="#ffbf69"/>
<rect x="65" y="118" width="9" height="9" fill="#ffbf69"/>
<rect x="77" y="118" width="9" height="9" fill="#ffbf69"/>
<rect x="89" y="118" width="9" height="9" fill="#ffbf69"/>
<rect x="65" y="130" width="9" height="9" fill="#ffbf69"/>
<rect x="89" y="130" width="9" height="9" fill="#ffbf69"/>
<rect x="65" y="142" width="9" height="9" fill="#ffbf69"/>
<rect x="77" y="142" width="9" height="9" fill="#ffbf69"/>
<rect x="89" y="142" width="9" height="9" fill="#ffbf69"/>
<text x="120" y="146" font-family="monospace" font-size="36" font-weight="bold" fill="#fff2d5">cc10x</text>
<text x="120" y="188" font-family="monospace" font-size="25" fill="#9aaabe">github.com/romiluz13</text>
<text x="844" y="163" font-family="monospace" font-size="34" fill="#ffbf69">01</text>
<rect x="32" y="242" width="896" height="134" rx="8" fill="#152235" stroke="#2b3b52" stroke-width="2"/>
<rect x="32" y="242" width="7" height="134" fill="#80dbc4"/>
<rect x="65" y="272" width="9" height="9" fill="#80dbc4"/>
<rect x="77" y="272" width="9" height="9" fill="#80dbc4"/>
<rect x="89" y="272" width="9" height="9" fill="#80dbc4"/>
<rect x="65" y="284" width="9" height="9" fill="#80dbc4"/>
<rect x="89" y="284" width="9" height="9" fill="#80dbc4"/>
<rect x="65" y="296" width="9" height="9" fill="#80dbc4"/>
<rect x="77" y="296" width="9" height="9" fill="#80dbc4"/>
<rect x="89" y="296" width="9" height="9" fill="#80dbc4"/>
<text x="120" y="300" font-family="monospace" font-size="36" font-weight="bold" fill="#fff2d5">Hybrid-Search-RAG</text>
<text x="120" y="342" font-family="monospace" font-size="25" fill="#9aaabe">github.com/romiluz13</text>
<text x="844" y="317" font-family="monospace" font-size="34" fill="#80dbc4">02</text>
<rect x="32" y="396" width="896" height="134" rx="8" fill="#152235" stroke="#2b3b52" stroke-width="2"/>
<rect x="32" y="396" width="7" height="134" fill="#b4a0e7"/>
<rect x="65" y="426" width="9" height="9" fill="#b4a0e7"/>
<rect x="77" y="426" width="9" height="9" fill="#b4a0e7"/>
<rect x="89" y="426" width="9" height="9" fill="#b4a0e7"/>
<rect x="65" y="438" width="9" height="9" fill="#b4a0e7"/>
<rect x="89" y="438" width="9" height="9" fill="#b4a0e7"/>
<rect x="65" y="450" width="9" height="9" fill="#b4a0e7"/>
<rect x="77" y="450" width="9" height="9" fill="#b4a0e7"/>
<rect x="89" y="450" width="9" height="9" fill="#b4a0e7"/>
<text x="120" y="454" font-family="monospace" font-size="36" font-weight="bold" fill="#fff2d5">whatsapp_ai</text>
<text x="120" y="496" font-family="monospace" font-size="25" fill="#9aaabe">github.com/romiluz13</text>
<text x="844" y="471" font-family="monospace" font-size="34" fill="#b4a0e7">03</text>
<rect x="32" y="550" width="896" height="134" rx="8" fill="#152235" stroke="#2b3b52" stroke-width="2"/>
<rect x="32" y="550" width="7" height="134" fill="#ffbf69"/>
<rect x="65" y="580" width="9" height="9" fill="#ffbf69"/>
<rect x="77" y="580" width="9" height="9" fill="#ffbf69"/>
<rect x="89" y="580" width="9" height="9" fill="#ffbf69"/>
<rect x="65" y="592" width="9" height="9" fill="#ffbf69"/>
<rect x="89" y="592" width="9" height="9" fill="#ffbf69"/>
<rect x="65" y="604" width="9" height="9" fill="#ffbf69"/>
<rect x="77" y="604" width="9" height="9" fill="#ffbf69"/>
<rect x="89" y="604" width="9" height="9" fill="#ffbf69"/>
<text x="120" y="608" font-family="monospace" font-size="36" font-weight="bold" fill="#fff2d5">ClawMongo</text>
<text x="120" y="650" font-family="monospace" font-size="25" fill="#9aaabe">github.com/romiluz13</text>
<text x="844" y="625" font-family="monospace" font-size="34" fill="#ffbf69">04</text>
<rect x="32" y="704" width="896" height="134" rx="8" fill="#152235" stroke="#2b3b52" stroke-width="2"/>
<rect x="32" y="704" width="7" height="134" fill="#80dbc4"/>
<rect x="65" y="734" width="9" height="9" fill="#80dbc4"/>
<rect x="77" y="734" width="9" height="9" fill="#80dbc4"/>
<rect x="89" y="734" width="9" height="9" fill="#80dbc4"/>
<rect x="65" y="746" width="9" height="9" fill="#80dbc4"/>
<rect x="89" y="746" width="9" height="9" fill="#80dbc4"/>
<rect x="65" y="758" width="9" height="9" fill="#80dbc4"/>
<rect x="77" y="758" width="9" height="9" fill="#80dbc4"/>
<rect x="89" y="758" width="9" height="9" fill="#80dbc4"/>
<text x="120" y="762" font-family="monospace" font-size="36" font-weight="bold" fill="#fff2d5">Memongo</text>
<text x="120" y="804" font-family="monospace" font-size="25" fill="#9aaabe">github.com/romiluz13</text>
<text x="844" y="779" font-family="monospace" font-size="34" fill="#80dbc4">05</text>
<rect x="32" y="858" width="896" height="134" rx="8" fill="#152235" stroke="#2b3b52" stroke-width="2"/>
<rect x="32" y="858" width="7" height="134" fill="#b4a0e7"/>
<rect x="65" y="888" width="9" height="9" fill="#b4a0e7"/>
<rect x="77" y="888" width="9" height="9" fill="#b4a0e7"/>
<rect x="89" y="888" width="9" height="9" fill="#b4a0e7"/>
<rect x="65" y="900" width="9" height="9" fill="#b4a0e7"/>
<rect x="89" y="900" width="9" height="9" fill="#b4a0e7"/>
<rect x="65" y="912" width="9" height="9" fill="#b4a0e7"/>
<rect x="77" y="912" width="9" height="9" fill="#b4a0e7"/>
<rect x="89" y="912" width="9" height="9" fill="#b4a0e7"/>
<text x="120" y="916" font-family="monospace" font-size="36" font-weight="bold" fill="#fff2d5">pi-agent-skills</text>
<text x="120" y="958" font-family="monospace" font-size="25" fill="#9aaabe">github.com/romiluz13</text>
<text x="844" y="933" font-family="monospace" font-size="34" fill="#b4a0e7">06</text>
<text x="40" y="1040" font-family="monospace" font-size="22" fill="#80dbc4">BUILD / REMEMBER / CHECK</text></svg>
